<svg width="36" height="36" viewBox="0 0 36 36" fill="none" xmlns="http://www.w3.org/2000/svg">
<path d="M22.5 4.5V7.5" stroke="black" stroke-width="1.5" stroke-linecap="round" stroke-linejoin="round"/>
<path d="M10.5 4.5V7.5" stroke="black" stroke-width="1.5" stroke-linecap="round" stroke-linejoin="round"/>
<path d="M4.5 12H28.5" stroke="black" stroke-width="1.5" stroke-linecap="round" stroke-linejoin="round"/>
<path d="M28.5 15.6255V9C28.5 7.3425 27.1575 6 25.5 6H7.5C5.8425 6 4.5 7.3425 4.5 9V25.5C4.5 27.1575 5.8425 28.5 7.5 28.5H15.6255" stroke="black" stroke-width="1.5" stroke-linecap="round" stroke-linejoin="round"/>
<path d="M26.0896 23.9744V26.6114L28.1626 27.8759" stroke="black" stroke-width="1.5" stroke-linecap="round" stroke-linejoin="round"/>
<path d="M26.25 33C22.5225 33 19.5 29.979 19.5 26.25C19.5 22.599 22.605 19.4955 26.256 19.5C29.982 19.503 33 22.524 33 26.25C33 29.9775 29.979 33 26.25 33" stroke="black" stroke-width="1.5"/>
<path d="M10.4985 16.125C10.2915 16.125 10.1235 16.293 10.125 16.5C10.125 16.707 10.293 16.875 10.5 16.875C10.707 16.875 10.875 16.707 10.875 16.5C10.875 16.293 10.707 16.125 10.4985 16.125" stroke="black" stroke-width="1.5" stroke-linecap="round" stroke-linejoin="round"/>
<path d="M10.4985 22.125C10.2915 22.125 10.1235 22.293 10.125 22.5C10.125 22.707 10.293 22.875 10.5 22.875C10.707 22.875 10.875 22.707 10.875 22.5C10.875 22.293 10.707 22.125 10.4985 22.125" stroke="black" stroke-width="1.5" stroke-linecap="round" stroke-linejoin="round"/>
<path d="M16.125 16.5015C16.125 16.7085 16.293 16.8765 16.5 16.875C16.707 16.875 16.875 16.707 16.875 16.5C16.875 16.293 16.707 16.125 16.5 16.125C16.293 16.125 16.125 16.293 16.125 16.5015" stroke="black" stroke-width="1.5" stroke-linecap="round" stroke-linejoin="round"/>
</svg>
