<svg width="50" height="50" viewBox="0 0 50 50" fill="none" xmlns="http://www.w3.org/2000/svg">
<path fill-rule="evenodd" clip-rule="evenodd" d="M27.0009 29.252C24.7909 29.252 22.9993 31.0436 22.9993 33.2537V35.2545C22.9993 37.4646 24.7909 39.2562 27.0009 39.2562H28.7364V42.2554C28.7364 42.6416 28.9586 42.9932 29.3074 43.159C29.6561 43.3247 30.0691 43.275 30.3685 43.0312L34.4525 39.7055C34.8094 39.4148 35.2556 39.2561 35.7159 39.2561H41.0068C43.2168 39.2561 45.0084 37.4645 45.0084 35.2545V33.2536C45.0084 31.0436 43.2168 29.252 41.0068 29.252H27.0009Z" stroke="#323232" stroke-width="2" stroke-linecap="round" stroke-linejoin="round"/>
<path d="M23.0067 14.2533V14.9204C23.0067 17.8676 20.6176 20.2567 17.6704 20.2567H12.3362C9.38911 20.2567 7 17.8676 7 14.9204V11.5862C7 8.63911 9.38911 6.25 12.3362 6.25H15.0033" stroke="#FF7F50" stroke-width="2" stroke-linecap="round" stroke-linejoin="round"/>
<path d="M16.416 11.5876C17.1956 12.3691 17.1945 13.6346 16.4136 14.4148C15.6327 15.1951 14.3673 15.1951 13.5864 14.4148C12.8055 13.6346 12.8044 12.3691 13.584 11.5876C13.9592 11.2114 14.4687 11 15 11C15.5313 11 16.0408 11.2114 16.416 11.5876" stroke="#FF7F50" stroke-width="2" stroke-linecap="round" stroke-linejoin="round"/>
<path d="M20.2554 7.00042H24.257" stroke="#FF7F50" stroke-width="2" stroke-linecap="round" stroke-linejoin="round"/>
<path d="M22.2563 9.00167V5" stroke="#FF7F50" stroke-width="2" stroke-linecap="round" stroke-linejoin="round"/>
<path fill-rule="evenodd" clip-rule="evenodd" d="M4.9917 44.0079V43.1956C4.99829 40.8844 6.87025 39.0125 9.18144 39.0059H14.8078C17.119 39.0125 18.9909 40.8844 18.9975 43.1956V44.0079C18.9975 44.5605 18.5496 45.0084 17.9971 45.0084H5.99212C5.4396 45.0084 4.9917 44.5605 4.9917 44.0079Z" stroke="#323232" stroke-width="2" stroke-linecap="round" stroke-linejoin="round"/>
<circle cx="11.9946" cy="30.0022" r="4.00167" stroke="#323232" stroke-width="2" stroke-linecap="round" stroke-linejoin="round"/>
<path fill-rule="evenodd" clip-rule="evenodd" d="M31.0024 21.9992V21.1868C31.009 18.8756 32.881 17.0037 35.1922 16.9971H40.8185C43.1297 17.0037 45.0017 18.8756 45.0083 21.1868V21.9992C45.0083 22.5517 44.5604 22.9996 44.0079 22.9996H32.0029C31.4503 22.9996 31.0024 22.5517 31.0024 21.9992Z" stroke="#323232" stroke-width="2" stroke-linecap="round" stroke-linejoin="round"/>
<circle cx="38.0053" cy="7.99337" r="4.00167" stroke="#323232" stroke-width="2" stroke-linecap="round" stroke-linejoin="round"/>
</svg>
