<svg width="48" height="48" viewBox="0 0 48 48" fill="none" xmlns="http://www.w3.org/2000/svg">
<path d="M34.0651 23.9349C34.101 23.9709 34.101 24.0291 34.0651 24.0651C34.0291 24.101 33.9709 24.101 33.9349 24.0651C33.899 24.0291 33.899 23.9709 33.9349 23.9349C33.9709 23.899 34.0291 23.899 34.0651 23.9349" stroke="#323232" stroke-width="2" stroke-linecap="round" stroke-linejoin="round"/>
<path d="M29.96 13.718C30.612 13.55 31.238 13.304 31.804 12.94C32.726 12.346 33.82 12 35 12H37V17.108C38.436 18.404 39.576 20.02 40.252 21.87H42C43.104 21.87 44 22.766 44 23.87V30C44 31.104 43.104 32 42 32H39.378C38.328 33.816 36.812 35.328 35 36.382V40C35 41.104 34.104 42 33 42H29C27.896 42 27 41.104 27 40V38H20V39.736C20 40.84 19.104 41.736 18 41.736H14C12.896 41.736 12 40.84 12 39.736V34.926C9.55 32.73 8 29.55 8 26C8 20.704 11.436 16.218 16.196 14.626" stroke="#323232" stroke-width="2" stroke-linecap="round" stroke-linejoin="round"/>
<path d="M4.576 20C3.638 20.546 3 21.552 3 22.716C3 24.458 4.412 25.87 6.154 25.87H8" stroke="#323232" stroke-width="2" stroke-linecap="round" stroke-linejoin="round"/>
<path d="M27.9498 8.05026C30.6834 10.7839 30.6834 15.2161 27.9498 17.9498C25.2161 20.6834 20.7839 20.6834 18.0503 17.9498C15.3166 15.2161 15.3166 10.7839 18.0503 8.05026C20.7839 5.31658 25.2161 5.31658 27.9498 8.05026" stroke="#FF7F50" stroke-width="2" stroke-linecap="round" stroke-linejoin="round"/>
<path d="M17 20H29" stroke="#323232" stroke-width="2" stroke-linecap="round" stroke-linejoin="round"/>
</svg>
