<svg width="48" height="48" viewBox="0 0 48 48" fill="none" xmlns="http://www.w3.org/2000/svg">
<path d="M40.07 15.5999C37.18 9.92193 31.296 6.02393 24.49 6.02393C14.83 6.02393 7 13.8579 7 23.5239C7 33.1879 14.83 41.0239 24.49 41.0239C34.15 41.0239 41.98 33.1899 41.98 23.5239C41.98 23.0019 41.946 22.4899 41.902 21.9799" stroke="#323232" stroke-width="2" stroke-linecap="round" stroke-linejoin="round"/>
<path d="M7.04005 24.698C3.31205 27.432 1.29405 30.466 2.19405 32.586C3.47005 35.746 10.67 35.816 18.276 32.742" stroke="#323232" stroke-width="2" stroke-linecap="round" stroke-linejoin="round"/>
<path fill-rule="evenodd" clip-rule="evenodd" d="M18.1341 27.1401L14.4561 22.2501L17.1561 21.3441C17.6461 21.1801 18.1841 21.2561 18.6081 21.5501L20.9521 23.1681L26.5901 20.6861L20.7001 13.2241L25.4961 12.2041L33.2421 18.2701L41.5021 14.9781C43.5241 14.1721 45.7561 15.5201 45.9821 17.6841V17.6841C46.1341 19.1201 45.3281 20.4881 43.9961 21.0521L29.1901 27.3201C28.8101 27.4801 28.4061 27.5681 27.9941 27.5781L19.4861 27.7901C18.9561 27.8081 18.4521 27.5641 18.1341 27.1401Z" stroke="#FF7F50" stroke-width="2" stroke-linecap="round" stroke-linejoin="round"/>
</svg>
