<svg width="20" height="23" viewBox="0 0 20 23" fill="none" xmlns="http://www.w3.org/2000/svg">
<path d="M1.37305 21.2541H17.7799" stroke="#FF7F50" stroke-width="1.5" stroke-linecap="round" stroke-linejoin="round"/>
<ellipse cx="2.33841" cy="10.2494" rx="1.44766" ry="1.50063" stroke="#FF7F50" stroke-width="1.5" stroke-linecap="round" stroke-linejoin="round"/>
<ellipse cx="16.8146" cy="10.2494" rx="1.44766" ry="1.50063" stroke="#FF7F50" stroke-width="1.5" stroke-linecap="round" stroke-linejoin="round"/>
<ellipse cx="9.57657" cy="2.74623" rx="1.44766" ry="1.50063" stroke="#FF7F50" stroke-width="1.5" stroke-linecap="round" stroke-linejoin="round"/>
<ellipse cx="9.57657" cy="17.7526" rx="1.44766" ry="1.50062" stroke="#FF7F50" stroke-width="1.5" stroke-linecap="round" stroke-linejoin="round"/>
<ellipse cx="4.45816" cy="15.5548" rx="1.44766" ry="1.50063" stroke="#FF7F50" stroke-width="1.5" stroke-linecap="round" stroke-linejoin="round"/>
<ellipse cx="14.695" cy="4.94398" rx="1.44766" ry="1.50063" stroke="#FF7F50" stroke-width="1.5" stroke-linecap="round" stroke-linejoin="round"/>
<ellipse cx="4.45816" cy="4.94398" rx="1.44766" ry="1.50063" stroke="#FF7F50" stroke-width="1.5" stroke-linecap="round" stroke-linejoin="round"/>
<ellipse cx="14.695" cy="15.5548" rx="1.44766" ry="1.50063" stroke="#FF7F50" stroke-width="1.5" stroke-linecap="round" stroke-linejoin="round"/>
<ellipse cx="9.57639" cy="10.2496" rx="1.67038" ry="1.73149" stroke="#FF7F50" stroke-width="1.5" stroke-linecap="round" stroke-linejoin="round"/>
<path d="M13.5817 16.502C12.803 17.0381 11.9311 17.4118 11.0145 17.6024" stroke="#FF7F50" stroke-width="1.5" stroke-linecap="round" stroke-linejoin="round"/>
<path d="M16.6703 11.74C16.4864 12.6901 16.1258 13.5939 15.6086 14.4011" stroke="#FF7F50" stroke-width="1.5" stroke-linecap="round" stroke-linejoin="round"/>
<path d="M15.6086 6.09766C16.1258 6.90483 16.4864 7.80869 16.6703 8.75876" stroke="#FF7F50" stroke-width="1.5" stroke-linecap="round" stroke-linejoin="round"/>
<path d="M11.0145 2.89648C11.9311 3.08705 12.803 3.46083 13.5817 3.99694" stroke="#FF7F50" stroke-width="1.5" stroke-linecap="round" stroke-linejoin="round"/>
<path d="M5.57104 3.99694C6.34973 3.46083 7.22169 3.08705 8.13823 2.89648" stroke="#FF7F50" stroke-width="1.5" stroke-linecap="round" stroke-linejoin="round"/>
<path d="M2.48291 8.75876C2.66675 7.80869 3.02733 6.90483 3.54453 6.09766" stroke="#FF7F50" stroke-width="1.5" stroke-linecap="round" stroke-linejoin="round"/>
<path d="M3.54453 14.4011C3.02733 13.5939 2.66675 12.6901 2.48291 11.74" stroke="#FF7F50" stroke-width="1.5" stroke-linecap="round" stroke-linejoin="round"/>
<path d="M8.13823 17.6024C7.22169 17.4118 6.34973 17.0381 5.57104 16.502" stroke="#FF7F50" stroke-width="1.5" stroke-linecap="round" stroke-linejoin="round"/>
<path d="M13.9876 21.254L12.3541 17.1819" stroke="#FF7F50" stroke-width="1.5" stroke-linecap="round" stroke-linejoin="round"/>
<path d="M6.79853 17.1819L5.16504 21.254" stroke="#FF7F50" stroke-width="1.5" stroke-linecap="round" stroke-linejoin="round"/>
</svg>
