<svg width="86" height="76" viewBox="0 0 86 76" fill="none" xmlns="http://www.w3.org/2000/svg">
<path d="M83.4076 31.1818C84.1182 32.1941 83.9905 33.6049 83.3038 34.5534C82.2817 35.9642 81.0201 37.1519 79.6547 38.212C77.5468 39.8619 75.3589 41.4242 73.211 43.0263C73.1551 43.0661 73.1072 43.106 72.9795 43.2016C73.6262 43.8313 74.265 44.4371 74.8878 45.0588C75.5027 45.6805 76.1814 46.2624 76.7004 46.9559C77.6825 48.271 77.954 49.7855 77.6186 51.4035C77.419 52.3759 77.1795 53.3245 76.4449 54.0418C77.5068 55.9707 77.4749 57.9475 76.8521 59.9561C75.8939 63.0248 73.8099 64.89 70.7038 65.6791C69.3304 66.0218 67.997 66.0935 66.6156 65.703C65.6255 65.424 64.827 64.9219 64.1163 64.2204C63.4935 63.6067 62.8867 62.977 62.2798 62.3473C62.2399 62.3553 62.2 62.3712 62.1601 62.3792C62.1202 62.7618 62.0882 63.1444 62.0403 63.527C61.9684 64.1327 61.9205 64.7385 61.8008 65.3363C61.5452 66.6037 60.7388 67.3529 59.4932 67.6797C58.4312 67.9587 57.3772 68.2696 56.3232 68.5884C55.7882 68.7478 55.2612 68.7876 54.7262 68.5884C54.4468 68.4848 54.2152 68.5246 53.9517 68.7C52.9137 69.4094 51.708 69.6644 50.4863 69.7282C49.6399 69.776 48.8015 69.5289 48.043 69.1224C47.8673 69.0268 47.7555 69.0188 47.5958 69.1543C46.1985 70.334 44.6335 71.139 42.8049 71.426C41.735 71.5933 40.7529 71.3383 39.8266 70.8202C39.4513 70.605 39.124 70.3101 38.7646 70.0391C37.6787 71.426 36.3453 72.5419 34.6844 73.1715C33.7981 73.5063 32.8479 73.7773 31.9137 73.8411C29.9335 73.9846 28.1608 73.4027 26.7635 71.9122C26.5319 71.6651 26.2924 71.41 26.0848 71.1868C25.446 72.0078 24.8791 72.8129 24.2323 73.5382C23.4418 74.4229 22.5236 75.1722 21.4217 75.6504C20.5833 76.0091 19.7129 76.1526 18.8426 75.7859C18.5551 75.6664 18.2757 75.483 18.0441 75.2758C17.5171 74.7737 17.03 74.2316 16.519 73.7215C15.9761 73.1795 15.3932 72.6774 14.8901 72.1114C14.5867 71.7687 14.3312 71.3462 14.1555 70.9158C13.6365 69.6405 14.0517 68.3811 14.3472 67.1297C14.8023 65.2247 15.2973 63.3277 15.7764 61.4307C15.8004 61.3271 15.8164 61.2314 15.8403 61.1039C15.6646 61.056 15.5209 61.0003 15.3612 60.9763C14.2434 60.793 13.397 60.1633 12.6224 59.3902C11.6483 58.4177 10.6502 57.4692 9.69203 56.4729C8.93347 55.6838 8.35058 54.7831 8.04716 53.6991C7.54412 51.8977 7.40838 50.1043 7.90343 48.287C7.48822 48.0558 7.06503 47.8645 6.68975 47.6015C5.34032 46.6769 4.27834 45.4414 3.16845 44.2697C2.95286 44.0386 2.68937 43.8552 2.46579 43.6241C1.4118 42.5799 0.685183 41.3524 0.349822 39.8779C-0.608353 35.7171 0.405716 32.1144 3.34412 29.0456C4.09469 28.2645 4.98898 27.6747 5.99507 27.2443C6.04298 27.2283 6.07492 27.1885 6.12282 27.1486C4.26237 25.6182 3.54374 23.5698 3.63956 21.2822C3.72739 19.1699 4.55781 17.2809 5.96313 15.6548C7.33651 14.0607 9.03727 12.889 10.754 11.7253C11.4567 11.247 12.1913 10.8166 12.8859 10.3304C13.2612 10.0674 13.6365 9.76448 13.9 9.38986C14.97 7.89934 16.4951 7.18197 18.1878 6.68779C18.9704 6.45664 19.7129 6.51243 20.4396 6.78344C20.8069 6.92691 21.1422 7.20588 21.4377 7.47689C21.9966 7.99499 22.5156 8.56091 23.0506 9.10291C23.5616 9.61304 24.1285 10.0833 24.5996 10.6333C25.3183 11.4702 25.5658 12.4666 25.3103 13.5585C25.2304 13.9013 25.1506 14.252 25.0468 14.6744C25.9011 14.2201 26.6916 13.7977 27.4821 13.3832C30.7559 11.6615 33.9977 9.87607 37.3114 8.24208C41.719 6.07404 46.3582 4.55163 51.2049 3.67486C54.8859 3.00532 58.527 3.08502 62.1042 4.28063C62.2559 4.32845 62.3996 4.37628 62.5673 4.43207C63.4536 2.67852 64.843 1.45103 66.5996 0.669895C68.0369 0.0322381 69.5779 -0.294561 71.119 0.351067C71.7019 0.598159 72.2528 0.980754 72.7399 1.38726C73.235 1.79377 73.6422 2.31186 74.0255 2.70243C74.7122 2.50316 75.2871 2.26404 75.8939 2.17636C77.3392 1.96912 78.5768 2.39954 79.5589 3.52341C80.0221 4.04948 80.557 4.50381 81.0521 4.99002C81.603 5.54 82.2099 6.0581 82.689 6.66388C83.7509 8.00296 83.9905 9.54928 83.6471 11.2072C83.3757 12.5303 82.9684 13.7977 82.0422 14.8657C82.5133 15.3918 82.8646 15.9498 83.0403 16.6432C83.2878 17.6236 83.1601 18.5642 82.9844 19.5206C82.8646 20.1822 82.7209 20.8438 82.6011 21.5133C82.5852 21.6169 82.5772 21.7684 82.6411 21.8322C83.3198 22.5176 84.0224 23.1712 84.6931 23.8647C85.4517 24.6458 85.7631 25.5943 85.6114 26.6624C85.4038 28.145 84.6692 29.4043 83.7989 30.592C83.6711 30.7992 83.5354 30.9985 83.4076 31.1818ZM71.5342 26.8218C71.5981 26.9812 71.638 27.0689 71.67 27.1486C72.0452 28.0732 72.716 28.6391 73.73 28.7268C74.8878 28.8304 75.9019 28.4399 76.8122 27.7624C78.2095 26.7102 79.1278 25.2994 79.8065 23.7132C79.8863 23.5219 79.9502 23.2908 79.9182 23.0995C79.8863 22.8923 79.7426 22.693 79.6547 22.4937C79.4551 22.5894 79.1996 22.6372 79.0639 22.7886C78.7924 23.0915 78.5928 23.4661 78.3452 23.785C78.0418 24.1676 77.6426 24.4386 77.1316 24.3031C76.6445 24.1755 76.4209 23.7372 76.4209 23.2988C76.4129 22.2705 76.4129 21.2264 76.5566 20.2141C76.7563 18.7555 77.0836 17.3207 77.3312 15.8701C77.419 15.3599 77.4509 14.8418 77.4509 14.3237C77.4509 13.7419 77.0517 13.3991 76.4768 13.5028C75.2072 13.7339 74.0095 14.1563 72.9954 14.9853C72.5403 15.3599 72.189 15.8222 72.3726 16.436C72.6361 17.3287 72.5323 18.1895 72.3646 19.0743C72.0692 20.6365 71.7498 22.1988 71.5103 23.769C71.4224 24.327 71.2947 24.8132 70.9274 25.2516C70.592 25.6581 70.2167 26.0407 69.6578 25.8972C69.0589 25.7458 68.9312 25.1958 68.8992 24.6697C68.7875 23.0278 69.051 21.4097 69.3384 19.8076C70.0091 16.0534 70.7437 12.3071 71.4144 8.55294C71.638 7.30153 71.8137 6.03419 71.6221 4.7509C71.3825 3.14082 70.2487 2.31186 68.6677 2.68649C67.1745 3.04517 65.9848 3.88209 65.1224 5.15741C64.9707 5.38059 64.8669 5.65956 64.819 5.9226C64.7392 6.36099 64.9068 6.50446 65.346 6.48055C65.9129 6.4407 66.2323 6.61605 66.4319 7.15009C66.5517 7.47689 66.6635 7.84354 66.6555 8.18628C66.6316 9.42971 66.5996 10.6811 66.4798 11.9245C66.2163 14.6187 65.6015 17.257 65.0426 19.9032C64.6433 21.7923 64.308 23.6973 64.0046 25.6103C63.9247 26.1045 63.765 26.4711 63.4456 26.8218C62.735 27.595 61.9844 28.2884 60.9464 28.5993C59.3654 29.0696 58.1357 28.2565 58.0399 26.6783C58.024 26.4073 58.0958 26.2878 58.3593 26.1921C59.9084 25.6501 61.2259 24.7574 62.2878 23.498C63.3019 22.2865 63.9726 20.9155 63.9407 19.2975C63.9087 17.4562 62.9186 16.5396 61.0981 16.691C59.3175 16.8425 57.7684 17.5917 56.4669 18.7953C53.9437 21.1387 52.8578 24.0879 53.0095 27.4834C53.0494 28.3602 52.738 28.9659 52.1471 29.492C51.5403 30.026 50.8297 29.8427 50.5502 29.0935C50.4384 28.7906 50.3586 28.4399 50.3825 28.121C50.5262 26.5269 50.6779 24.9248 50.9015 23.3386C51.0692 22.143 51.3646 20.9713 51.5563 19.7837C51.6042 19.4967 51.4764 19.1859 51.4285 18.883C51.1171 18.9388 50.7658 18.9308 50.4943 19.0663C49.8316 19.3931 49.2008 19.7916 48.554 20.1663C48.2346 20.3496 47.9232 20.3576 47.5639 20.246C47.1407 20.1105 46.6856 19.967 46.2464 19.975C44.0905 20.0228 42.3338 20.9554 40.8886 22.5017C39.4992 23.9922 38.7327 25.8016 38.3175 27.7624C37.9502 29.5319 37.7825 31.3093 38.2376 33.0868C38.5491 34.2824 39.1399 35.2867 40.4494 35.6135C41.3038 35.8208 42.1103 35.6056 42.8768 35.2309C44.1224 34.6172 45.0806 33.6766 45.927 32.6006C46.0148 32.497 46.0947 32.3854 46.1905 32.2738C46.3821 32.6245 46.5179 32.9354 46.7095 33.2143C47.2605 34.0114 48.0749 34.3541 49.0011 34.0752C49.616 33.8918 50.2228 33.6208 50.7578 33.2781C51.8357 32.5767 52.5863 31.5564 53.2251 30.4565C53.289 30.3369 53.3688 30.2253 53.4567 30.0818C54.3989 32.0506 55.9798 32.5846 57.9681 32.3376C60.2597 32.0426 62.0243 30.8709 63.4536 29.1094C63.6692 28.8464 63.8768 28.5674 64.1004 28.2805C64.1722 28.4638 64.2281 28.6073 64.292 28.7507C64.7791 29.8666 65.5456 30.3688 66.7513 30.3369C67.7335 30.305 68.5719 29.9065 69.3464 29.3326C70.2567 28.6312 70.9114 27.7863 71.5342 26.8218ZM63.7491 15.623C63.789 15.5592 63.8209 15.5353 63.8289 15.4954C64.1882 14.0607 64.5316 12.618 64.8989 11.1833C65.2981 9.63695 64.6114 8.56091 63.3738 7.79572C62.5673 7.29356 61.7049 6.85517 60.8106 6.55229C58 5.61174 55.1015 5.69145 52.211 6.09795C49.1848 6.5204 46.2783 7.37327 43.4198 8.43337C39.4114 9.9239 35.6266 11.8608 31.8897 13.9093C27.4821 16.3244 23.0506 18.7076 18.4354 20.7322C18.3076 20.788 18.1799 20.8438 17.9882 20.9235C18.0601 19.9511 18.1319 19.0583 18.1878 18.1576C18.3475 15.6389 18.5631 13.1361 19.4335 10.7289C19.5612 10.3703 19.6251 9.97969 19.657 9.60507C19.689 9.16668 19.4574 8.96741 19.0342 9.079C17.8844 9.38986 16.7665 9.7884 16.024 10.8086C15.5129 11.5021 14.9141 12.084 14.1715 12.5303C13.4209 12.9847 12.6943 13.4788 11.9677 13.9571C10.6582 14.8259 9.38062 15.7346 8.2867 16.8744C7.13689 18.0779 6.30648 19.4409 6.17872 21.1387C6.05096 22.7807 6.49013 24.1915 7.84754 25.2675C9.15705 26.3037 10.6262 26.5747 12.2392 26.4073C12.6145 26.3675 12.9977 26.3276 13.405 26.2878C13.405 26.3914 13.4129 26.4552 13.405 26.511C13.1894 27.7624 13.0137 29.0297 12.7502 30.2731C12.4627 31.6361 12.0715 32.9752 11.3449 34.1868C10.9217 34.8962 10.4027 35.5099 9.62016 35.8447C8.38252 36.3867 7.31256 35.8287 7.02511 34.5056C6.69773 32.9672 7.39241 31.2296 8.69393 30.3608C8.98936 30.1615 9.16503 29.8985 9.0772 29.5558C8.98138 29.1891 8.63803 29.213 8.35058 29.2369C7.36845 29.2927 6.53803 29.7232 5.77948 30.305C3.04868 32.3615 1.79507 36.4026 2.88899 39.6467C3.47986 41.3923 4.62168 42.5879 6.49811 42.9227C7.76769 43.1458 8.98138 42.8828 10.1472 42.3567C12.0076 41.5198 13.2852 40.0771 14.2753 38.3395C15.6247 35.9563 16.3513 33.3578 16.8384 30.6876C17.1578 28.9261 17.3654 27.1486 17.6129 25.3791C17.6449 25.1559 17.7327 25.0443 17.9403 24.9567C18.7069 24.6618 19.4734 24.3589 20.224 24.0321C24.951 21.9437 29.3985 19.3533 33.7662 16.6193C37.1837 14.4831 40.673 12.4984 44.4418 11.0398C47.3004 9.93187 50.2308 9.11886 53.3369 9.079C55.2373 9.05509 57.0738 9.34204 58.7985 10.171C61.17 11.3028 62.8068 13.1281 63.7491 15.623ZM78.2255 29.5877C78.1776 29.5398 78.1376 29.484 78.0897 29.4362C77.8422 29.5877 77.5867 29.7232 77.3392 29.8826C75.7182 30.9427 74.1532 32.0984 72.4764 33.0549C68.4202 35.3664 64.0684 37.0482 59.6848 38.6265C53.297 40.922 46.7814 42.6278 39.9624 42.9227C36.8323 43.0582 33.7103 42.9227 30.6202 42.4365C28.081 42.0379 25.5578 41.5039 23.0186 41.0814C20.7989 40.7148 18.643 40.667 16.4551 41.5597C12.2631 43.2734 9.60419 47.5696 10.235 52.0412C10.3707 53.0216 10.73 53.9143 11.4487 54.6237C12.5586 55.7157 14.2513 55.7715 15.6327 54.7114C17.1818 53.5237 18.0601 51.9296 18.3236 50.0007C18.3475 49.8014 18.2198 49.5862 18.1639 49.379C17.9802 49.4587 17.7646 49.4905 17.6289 49.6181C17.2137 49.9927 16.7506 50.1999 16.2076 50.0086C15.6487 49.8173 15.5289 49.3072 15.4251 48.8051C15.4091 48.7254 15.4091 48.6456 15.4091 48.5659C15.3373 46.7247 16.5589 44.9472 18.2996 44.3016C18.7388 44.1422 19.1061 44.1342 19.5373 44.3813C20.2719 44.7958 21.0544 45.1306 21.8289 45.5132C20.9745 47.2269 20.711 49.0761 20.4156 50.9173C20.1202 52.7745 19.9046 54.6476 19.5453 56.4968C19.2179 58.1707 18.7388 59.8126 18.3316 61.4705C17.7726 63.7183 17.1977 65.966 16.6627 68.2217C16.535 68.7558 16.4871 69.3217 16.4711 69.8717C16.4551 70.2702 16.6468 70.3658 17.0061 70.2064C17.3095 70.0709 17.6129 69.9275 17.8764 69.7441C19.0183 68.9471 19.8886 67.8949 20.5992 66.7073C22.0205 64.324 22.803 61.7097 23.2183 58.9996C23.7373 55.62 24.0886 52.2165 24.5198 48.821C24.6076 48.1036 24.7194 47.3863 24.8152 46.6609C24.9589 46.6848 25.0388 46.6928 25.1107 46.7167C27.4342 47.3942 29.8057 47.721 32.2091 47.8725C35.6586 48.0877 39.092 47.8725 42.5095 47.3863C46.6616 46.7964 50.7179 45.8081 54.6943 44.4929C61.2977 42.3089 67.2624 38.9612 72.7559 34.7367C74.5285 33.3737 76.2452 31.955 77.7224 30.2572C77.9141 30.0739 78.0578 29.8188 78.2255 29.5877ZM58.0399 49.7137C58.0479 49.626 58.0719 49.4587 58.0798 49.2913C58.1038 48.8529 58.1677 48.4145 58.1357 47.9841C58.0958 47.3783 57.7924 47.1392 57.1856 47.187C56.9221 47.2109 56.6665 47.2747 56.411 47.3464C55.4289 47.6174 54.5027 47.992 53.6962 48.6377C53.1053 49.1159 52.8738 49.6739 53.1133 50.463C53.257 50.9492 53.257 51.5151 53.2011 52.0332C53.0335 53.4918 52.762 54.9425 52.6262 56.4091C52.5224 57.5489 51.9795 58.4337 51.2369 59.2228C50.5662 59.9402 49.7198 59.701 49.5281 58.7445C49.4243 58.2344 49.3924 57.6765 49.4722 57.1663C49.7278 55.4925 50.0551 53.8266 50.3346 52.1528C50.4624 51.3796 50.5901 50.6064 50.654 49.8333C50.7179 48.9964 50.3106 48.6616 49.4802 48.7971C49.2487 48.8369 49.0091 48.8927 48.7856 48.9645C47.7395 49.2913 46.7255 49.6818 45.935 50.4789C45.5278 50.8854 45.4319 51.3477 45.5837 51.9057C45.6875 52.2723 45.7513 52.6629 45.7433 53.0375C45.7114 54.4722 45.4639 55.8831 45.0806 57.27C44.7852 58.3301 44.5137 59.4141 43.803 60.2829C43.4837 60.6735 43.0764 61.0242 42.6373 61.2792C42.1342 61.5741 41.703 61.351 41.5992 60.7771C41.5274 60.3785 41.5114 59.9481 41.5673 59.5496C41.8627 57.6366 42.2061 55.7396 42.5095 53.8266C42.6373 53.0295 42.773 52.2325 42.8209 51.4274C42.8768 50.5985 42.4297 50.2717 41.6072 50.4391C40.6491 50.6383 39.7308 50.9492 38.9084 51.4752C38.557 51.6984 38.2376 51.9933 37.9422 52.2962C37.6468 52.6071 37.5749 53.0136 37.7266 53.4121C37.9981 54.1454 37.9262 54.8708 37.7905 55.6121C37.4791 57.3576 37.1357 59.1032 36.8483 60.8568C36.6806 61.877 36.5928 62.9132 36.8722 63.9415C37.2795 65.4399 38.3494 66.0457 39.8426 65.6392C40.7289 65.4001 41.5114 64.9697 42.246 64.4356C43.2441 63.7103 44.0665 62.8176 44.8251 61.7973C44.873 61.9488 44.9049 62.0524 44.9369 62.156C45.3521 63.6067 46.43 64.2523 47.9232 63.9574C49.1848 63.7023 50.143 62.985 50.9734 62.0524C51.2529 61.7336 51.5163 61.3908 51.8278 61.0082C51.8118 61.2713 51.8038 61.4546 51.7878 61.6379C51.7719 61.8212 51.7479 62.0125 51.7479 62.1959C51.7639 62.9611 52.0194 63.1524 52.746 62.9451C53.5844 62.706 54.4228 62.435 55.2692 62.2038C56.0437 61.9966 56.2194 61.8611 56.2433 61.08C56.2992 59.3184 56.6266 57.6047 57.0019 55.891C57.3053 54.5041 57.6886 53.1411 58.3673 51.8818C58.503 51.6347 58.6707 51.4115 58.8624 51.1245C58.9103 51.3637 58.9342 51.5071 58.9741 51.6506C59.2137 52.5194 59.9163 52.8781 60.7228 52.4716C61.0901 52.2883 61.4414 51.9933 61.681 51.6665C62.5114 50.5347 62.7909 49.2355 62.6392 47.8565C62.5194 46.6928 61.681 46.2225 60.611 46.7167C60.1559 46.9319 59.7008 47.2508 59.3894 47.6413C58.8863 48.287 58.4711 49.0442 58.0399 49.7137ZM36.1696 57.6526C36.1776 55.8671 36.0418 55.0382 35.6905 54.265C35.0278 52.7904 33.6703 52.0013 32.1692 52.2245C31.1072 52.3839 30.1091 52.7426 29.1989 53.3085C27.011 54.6635 25.6456 56.6562 24.8392 59.0554C24.1844 61.0082 23.9289 63.0089 24.4319 65.0414C25.0069 67.329 26.6837 68.4369 29.0152 68.0703C30.9875 67.7594 32.4966 66.6913 33.6703 65.1211C35.451 62.7379 36.0977 59.988 36.1696 57.6526ZM20.3837 40.0373C20.6232 40.0213 20.8627 40.0293 21.1023 39.9974C24.2243 39.5431 26.1886 37.5424 26.5719 34.4179C26.7475 32.9991 26.3323 31.8195 25.1186 30.9825C24.8472 30.7912 24.5677 30.6079 24.3042 30.4086C23.9688 30.1536 23.6095 29.9065 23.3221 29.6036C22.5316 28.7826 22.4916 27.4834 23.1783 26.6544C23.4818 26.2878 23.873 26.1284 24.1445 26.2878C24.5357 26.5189 24.384 26.8856 24.3202 27.2124C24.2962 27.316 24.2403 27.4117 24.2243 27.5153C24.1844 27.7863 24.1205 28.0652 24.1285 28.3442C24.1445 28.8304 24.3281 29.2609 24.7913 29.484C25.2544 29.7072 25.7015 29.5558 26.0529 29.2529C26.3323 29.0058 26.5878 28.6949 26.7475 28.3522C27.0589 27.7066 27.1228 27.0051 27.011 26.2958C26.8114 24.9726 26.0369 24.2552 24.6954 24.2552C24.0886 24.2552 23.4658 24.335 22.8909 24.4944C20.8707 25.0603 19.2897 26.1921 18.6669 28.2805C18.0281 30.4326 18.5392 31.8593 20.0962 33.0629C20.2878 33.2064 20.4795 33.3498 20.6551 33.5172C20.9586 33.8121 21.2859 34.0991 21.5175 34.4418C21.9966 35.1592 22.0445 35.9563 21.7331 36.7613C21.6053 37.0881 21.3418 37.2555 20.9825 37.2475C20.6312 37.2395 20.4555 37.0004 20.3677 36.7135C20.2799 36.4265 20.2399 36.1236 20.2 35.8208C20.1601 35.5179 20.1681 35.207 20.1122 34.9121C20.0004 34.3302 19.6012 34.0353 19.0103 34.0353C18.4753 34.0353 18.0601 34.2744 17.7407 34.6809C16.9582 35.6853 16.8624 36.8251 17.2137 37.9968C17.6129 39.3199 18.7468 40.0293 20.3837 40.0373ZM71.5422 54.1215C71.5502 52.8462 71.1989 52.089 70.1928 51.3079C69.7935 50.997 69.3544 50.7419 68.9631 50.4231C68.6437 50.168 68.3163 49.897 68.0768 49.5782C67.438 48.7333 67.5498 47.4102 68.2764 46.7327C68.516 46.5095 68.8034 46.374 69.1068 46.5254C69.4262 46.6848 69.3863 47.0037 69.3065 47.2986C69.2665 47.45 69.1947 47.6015 69.1787 47.7609C69.1548 48.1674 69.0749 48.5898 69.1547 48.9724C69.3065 49.6898 69.9532 49.9768 70.6319 49.7057C71.127 49.5065 71.4624 49.1398 71.6779 48.6616C71.9973 47.9363 72.0852 47.187 71.9414 46.4059C71.7338 45.2421 70.9992 44.5248 69.8414 44.4929C67.6376 44.4371 65.7612 45.1943 64.3958 46.9559C62.7669 49.0601 63.0783 51.6347 65.1144 53.3404C65.5536 53.7071 66.0008 54.0737 66.3601 54.5121C66.927 55.2055 67.0148 56.0345 66.7354 56.8794C66.6156 57.246 66.3521 57.4852 65.9369 57.4692C65.5456 57.4613 65.37 57.1743 65.3061 56.8555C65.2183 56.433 65.1703 55.9946 65.1464 55.5563C65.0825 54.5759 64.5475 54.0737 63.6532 54.2969C63.3179 54.3846 62.9745 54.6157 62.735 54.8708C62.216 55.4128 62.0483 56.1062 62.0004 56.8395C61.8886 58.7366 63.0624 60.1314 64.9068 60.2351C68.2125 60.4343 71.4863 58.2025 71.5422 54.1215ZM34.6924 26.5269C34.7483 26.774 34.7723 26.9493 34.8202 27.1088C35.0437 27.874 35.6905 28.2247 36.4331 27.9138C36.7844 27.7624 37.1437 27.5232 37.3833 27.2283C38.3415 26.0407 38.6449 24.6378 38.4612 23.1553C38.3255 22.0872 37.5589 21.6807 36.5449 22.0713C36.2973 22.1669 36.0578 22.2945 35.8502 22.4459C35.0597 23.0198 34.5726 23.8169 34.1734 24.6777C34.0856 24.869 33.9977 25.0523 33.9099 25.2436C33.8859 24.9726 33.9179 24.7255 33.9418 24.4784C33.9658 24.2154 33.9977 23.9524 34.0057 23.6814C34.0297 22.8205 33.6384 22.4857 32.8 22.6372C32.6563 22.6611 32.5126 22.693 32.3688 22.7328C31.251 23.0517 30.165 23.4422 29.3107 24.2712C28.8954 24.6697 28.7757 25.132 28.9034 25.7139C29.0232 26.2878 29.111 26.9015 29.0312 27.4754C28.6958 29.9543 28.2806 32.4252 27.9213 34.9041C27.7856 35.8367 27.6658 36.7693 27.6259 37.7098C27.6019 38.3634 27.8814 38.5308 28.5202 38.3554C29.4145 38.1004 30.3008 37.8294 31.1951 37.5823C31.8977 37.391 32.0734 37.2077 32.0973 36.4823C32.1852 34.0114 32.6962 31.6202 33.3909 29.2609C33.6624 28.3123 34.0376 27.3957 34.6924 26.5269ZM73.4665 9.04712C73.4665 9.12683 73.4586 9.20653 73.4665 9.28624C73.5624 10.0993 73.8019 10.8485 74.6563 11.1514C75.5186 11.4622 76.1414 10.984 76.6764 10.3862C77.3312 9.66087 77.7224 8.80003 77.93 7.85151C78.0817 7.16603 78.1376 6.48852 77.9221 5.81101C77.6346 4.91032 76.9559 4.48787 76.0456 4.73496C75.6943 4.83061 75.335 5.04582 75.0635 5.30885C74.0175 6.32113 73.5624 7.61239 73.4665 9.04712Z" fill="#FF7F50"/>
<path d="M71.5345 26.8219C70.9196 27.7864 70.2649 28.6313 69.3866 29.2929C68.62 29.8747 67.7736 30.2653 66.7915 30.2972C65.5858 30.337 64.8113 29.8269 64.3322 28.711C64.2683 28.5675 64.2124 28.4241 64.1406 28.2407C63.909 28.5357 63.7094 28.8067 63.4938 29.0697C62.0645 30.8232 60.2999 32.0029 58.0082 32.2978C56.02 32.5529 54.431 32.0109 53.4968 30.0421C53.401 30.1856 53.3291 30.3051 53.2653 30.4167C52.6265 31.5167 51.8759 32.537 50.798 33.2384C50.263 33.5891 49.6482 33.8521 49.0413 34.0354C48.1151 34.3144 47.3006 33.9797 46.7497 33.1746C46.558 32.8956 46.4143 32.5768 46.2307 32.2341C46.1428 32.3457 46.055 32.4493 45.9672 32.5609C45.1208 33.6369 44.1626 34.5775 42.917 35.1912C42.1504 35.5658 41.336 35.781 40.4896 35.5738C39.1721 35.255 38.5812 34.2507 38.2778 33.0471C37.8227 31.2696 37.9824 29.4842 38.3577 27.7226C38.7729 25.7618 39.5474 23.9525 40.9288 22.462C42.374 20.9156 44.1307 19.9751 46.2866 19.9352C46.7257 19.9273 47.1729 20.0707 47.6041 20.2063C47.9634 20.3178 48.2748 20.3099 48.5942 20.1265C49.2409 19.7519 49.8717 19.3614 50.5345 19.0266C50.806 18.8911 51.1573 18.8991 51.4687 18.8433C51.5166 19.1461 51.6444 19.457 51.5964 19.7439C51.4048 20.9316 51.1014 22.1033 50.9417 23.2989C50.7181 24.8851 50.5664 26.4792 50.4227 28.0813C50.3907 28.4001 50.4706 28.7509 50.5904 29.0537C50.8698 29.803 51.5805 29.9863 52.1873 29.4523C52.7782 28.9262 53.0896 28.3204 53.0497 27.4437C52.898 24.0481 53.9839 21.099 56.5071 18.7556C57.8086 17.552 59.3577 16.8028 61.1383 16.6513C62.9508 16.4919 63.9409 17.4165 63.9809 19.2577C64.0128 20.8758 63.3421 22.2468 62.328 23.4583C61.274 24.7177 59.9565 25.6104 58.3995 26.1524C58.136 26.2481 58.0641 26.3676 58.0801 26.6386C58.1759 28.2168 59.4056 29.0298 60.9866 28.5596C62.0246 28.2487 62.7752 27.5553 63.4858 26.7821C63.8052 26.4314 63.9729 26.0568 64.0447 25.5705C64.3402 23.6576 64.6755 21.7526 65.0828 19.8635C65.6417 17.2172 66.2565 14.5789 66.52 11.8848C66.6398 10.6414 66.6637 9.39796 66.6957 8.14656C66.7037 7.80382 66.5999 7.43716 66.4721 7.11036C66.2725 6.57633 65.9531 6.40894 65.3862 6.44082C64.947 6.47271 64.7873 6.32126 64.8592 5.88287C64.9071 5.61984 65.0109 5.34086 65.1626 5.11768C66.025 3.85034 67.2147 3.00544 68.7079 2.64676C70.2888 2.27214 71.4227 3.09312 71.6622 4.71118C71.8539 5.99446 71.6782 7.26181 71.4546 8.51321C70.7839 12.2674 70.0493 16.0137 69.3786 19.7679C69.0911 21.37 68.8276 22.988 68.9394 24.63C68.9714 25.1561 69.0991 25.706 69.698 25.8575C70.2569 26.001 70.6322 25.6184 70.9675 25.2119C71.3269 24.7735 71.4626 24.2873 71.5504 23.7293C71.79 22.1591 72.1094 20.5968 72.4048 19.0346C72.5725 18.1578 72.6763 17.289 72.4128 16.3962C72.2291 15.7825 72.5805 15.3202 73.0356 14.9456C74.0497 14.1166 75.2474 13.6942 76.517 13.463C77.0919 13.3594 77.4911 13.7021 77.4911 14.284C77.4911 14.8021 77.4592 15.3202 77.3714 15.8303C77.1238 17.281 76.7885 18.7157 76.5968 20.1744C76.4611 21.1946 76.4611 22.2308 76.4611 23.259C76.4611 23.7054 76.6847 24.1358 77.1717 24.2633C77.6828 24.3988 78.074 24.1278 78.3854 23.7453C78.6409 23.4264 78.8326 23.0518 79.1041 22.7489C79.2398 22.5975 79.4953 22.5496 79.6949 22.454C79.7907 22.6533 79.9345 22.8525 79.9584 23.0598C79.9824 23.259 79.9265 23.4902 79.8466 23.6735C79.128 25.2916 78.2098 26.7104 76.8124 27.7625C75.9021 28.44 74.8881 28.8306 73.7303 28.7269C72.7162 28.6393 72.0455 28.0733 71.6702 27.1487C71.6303 27.069 71.5983 26.9814 71.5345 26.8219ZM42.5098 29.7791C42.6215 30.3609 42.6774 30.9587 42.8691 31.5087C43.1006 32.1544 43.6596 32.2739 44.2185 31.8834C44.4022 31.7558 44.5938 31.6044 44.6976 31.4131C45.017 30.8392 45.3683 30.2653 45.5759 29.6436C46.1109 28.0813 46.3025 26.4473 46.4622 24.8133C46.5261 24.1916 46.5501 23.5699 46.5421 22.9482C46.5261 22.1192 45.9592 21.7685 45.2166 22.1352C44.9531 22.2627 44.6736 22.462 44.5139 22.7011C44.1945 23.1634 43.8831 23.6576 43.6755 24.1757C42.9569 25.9611 42.6854 27.8422 42.5098 29.7791ZM58.0242 24.3191C58.2158 24.2235 58.3276 24.1757 58.4234 24.1119C59.8926 23.1634 60.8189 21.8084 61.298 20.1425C61.3698 19.8954 61.3539 19.6164 61.3299 19.3534C61.274 18.7954 60.8748 18.5563 60.3717 18.8034C60.1082 18.9309 59.8447 19.1302 59.6611 19.3614C58.5113 20.7801 58.0961 22.454 58.0242 24.3191Z" fill="white"/>
<path d="M63.7488 15.6228C62.7986 13.128 61.1697 11.3027 58.7902 10.1629C57.0655 9.33395 55.229 9.047 53.3286 9.07092C50.2305 9.11077 47.2921 9.92378 44.4336 11.0317C40.6648 12.4904 37.1754 14.4751 33.7579 16.6112C29.3902 19.3452 24.9427 21.9357 20.2157 24.024C19.4652 24.3588 18.6986 24.6537 17.9321 24.9486C17.7165 25.0283 17.6287 25.1399 17.6047 25.371C17.3572 27.1405 17.1496 28.926 16.8302 30.6795C16.3431 33.3497 15.6165 35.9482 14.2671 38.3314C13.2849 40.0611 11.9994 41.5038 10.1389 42.3487C8.98113 42.8747 7.75945 43.1457 6.48987 42.9146C4.62143 42.5878 3.47961 41.3922 2.88873 39.6466C1.79482 36.4025 3.04843 32.3693 5.77923 30.3049C6.53778 29.731 7.37618 29.3006 8.35033 29.2368C8.64576 29.2209 8.98113 29.189 9.07694 29.5557C9.16478 29.8984 8.98911 30.1614 8.69367 30.3607C7.39215 31.2295 6.69748 32.9751 7.02485 34.5055C7.30432 35.8206 8.37428 36.3786 9.61991 35.8446C10.3944 35.5098 10.9214 34.896 11.3446 34.1866C12.0712 32.9751 12.4625 31.636 12.7499 30.273C13.0134 29.0296 13.1891 27.7702 13.4047 26.5108C13.4127 26.4471 13.4047 26.3833 13.4047 26.2877C12.9975 26.3275 12.6222 26.3674 12.2389 26.4072C10.634 26.5746 9.15679 26.2956 7.84729 25.2674C6.48987 24.1993 6.05869 22.7805 6.17846 21.1386C6.30622 19.4408 7.14462 18.0778 8.28645 16.8742C9.37238 15.7344 10.6579 14.8258 11.9674 13.957C12.6941 13.4708 13.4207 12.9766 14.1712 12.5302C14.9138 12.0838 15.5207 11.502 16.0237 10.8085C16.7663 9.78828 17.8762 9.38974 19.034 9.07889C19.4572 8.9673 19.6887 9.16656 19.6568 9.60495C19.6328 9.98755 19.569 10.3781 19.4332 10.7288C18.5788 13.136 18.3633 15.6468 18.2036 18.1655C18.1477 19.0662 18.0758 19.9589 18.0039 20.9313C18.1956 20.8516 18.3233 20.7958 18.4511 20.74C23.0663 18.7155 27.4899 16.3322 31.9055 13.9171C35.6423 11.8686 39.4271 9.92378 43.4355 8.44123C46.294 7.38112 49.2005 6.52826 52.2267 6.10581C55.1172 5.6993 58.0157 5.62757 60.8264 6.56014C61.7207 6.86303 62.591 7.30142 63.3895 7.80357C64.6271 8.56876 65.3138 9.64481 64.9146 11.1911C64.5473 12.6259 64.1959 14.0686 63.8446 15.5033C63.8286 15.5352 63.7967 15.567 63.7488 15.6228ZM15.345 14.1004C15.0576 14.3316 14.7541 14.5548 14.4747 14.7939C12.5344 16.4279 11.0572 18.3409 10.6659 20.9393C10.5382 21.7842 10.8735 22.374 11.7279 22.4697C12.3747 22.5414 13.0454 22.4378 13.7001 22.39C13.772 22.382 13.8758 22.2385 13.8838 22.1509C14.0036 21.1944 14.0834 20.2299 14.2112 19.2655C14.4427 17.5199 14.6024 15.7663 15.345 14.1004Z" fill="white"/>
<path d="M78.2257 29.5875C78.0581 29.8186 77.9143 30.0657 77.7307 30.2809C76.2535 31.9707 74.5368 33.3975 72.7641 34.7605C67.2706 38.977 61.298 42.3327 54.7026 44.5166C50.7261 45.8318 46.6699 46.8202 42.5178 47.41C39.1003 47.8962 35.6668 48.1114 32.2174 47.8962C29.814 47.7448 27.4345 47.418 25.1189 46.7405C25.047 46.7166 24.9672 46.7086 24.8235 46.6847C24.7197 47.41 24.6159 48.1274 24.528 48.8447C24.0969 52.2403 23.7455 55.6438 23.2265 59.0234C22.8113 61.7334 22.0288 64.3478 20.6075 66.731C19.8969 67.9187 19.0265 68.9628 17.8847 69.7679C17.6132 69.9592 17.3098 70.1026 17.0143 70.2302C16.655 70.3896 16.4634 70.286 16.4794 69.8954C16.5033 69.3454 16.5432 68.7795 16.671 68.2455C17.206 65.9898 17.7809 63.75 18.3398 61.4943C18.755 59.8364 19.2261 58.1944 19.5535 56.5205C19.9128 54.6713 20.1284 52.7982 20.4239 50.941C20.7193 49.0998 20.9828 47.2506 21.8372 45.5369C21.0547 45.1543 20.2801 44.8195 19.5455 44.4051C19.1143 44.158 18.747 44.1659 18.3079 44.3253C16.5672 44.971 15.3535 46.7484 15.4174 48.5897C15.4174 48.6694 15.4174 48.7491 15.4334 48.8288C15.5292 49.331 15.6569 49.8411 16.2159 50.0324C16.7588 50.2157 17.222 50.0164 17.6372 49.6418C17.7729 49.5143 17.9885 49.4824 18.1721 49.4027C18.228 49.6099 18.3558 49.8251 18.3318 50.0244C18.0683 51.9533 17.19 53.5475 15.641 54.7351C14.2516 55.7952 12.5588 55.7394 11.4569 54.6474C10.7383 53.938 10.379 53.0453 10.2432 52.0649C9.62043 47.5933 12.2714 43.2892 16.4634 41.5834C18.6512 40.6907 20.8071 40.7385 23.0269 41.1052C25.5661 41.5276 28.0893 42.0617 30.6284 42.4602C33.7185 42.9464 36.8406 43.0819 39.9706 42.9464C46.7976 42.6435 53.3052 40.9458 59.693 38.6502C64.0767 37.072 68.4204 35.3902 72.4847 33.0787C74.1615 32.1222 75.7265 30.9664 77.3474 29.9063C77.587 29.7469 77.8425 29.6114 78.098 29.46C78.1379 29.4839 78.1858 29.5397 78.2257 29.5875Z" fill="white"/>
<path d="M58.0397 49.7137C58.4709 49.0362 58.8781 48.279 59.4051 47.6174C59.7165 47.2269 60.1717 46.908 60.6268 46.6928C61.6888 46.1907 62.5272 46.6609 62.6549 47.8326C62.7987 49.2036 62.5272 50.5108 61.6968 51.6426C61.4572 51.9694 61.1059 52.2644 60.7386 52.4477C59.9321 52.8542 59.2295 52.5035 58.9899 51.6267C58.95 51.4832 58.926 51.3398 58.8781 51.1006C58.6865 51.3876 58.5108 51.6108 58.3831 51.8579C57.7044 53.1172 57.3211 54.4802 57.0177 55.8671C56.6424 57.5808 56.315 59.2945 56.2591 61.0561C56.2352 61.8292 56.0595 61.9727 55.285 62.1799C54.4386 62.4031 53.6082 62.6741 52.7618 62.9212C52.0352 63.1284 51.7797 62.9372 51.7637 62.172C51.7557 61.9886 51.7876 61.8053 51.8036 61.614C51.8196 61.4307 51.8276 61.2474 51.8435 60.9843C51.5321 61.3669 51.2766 61.7097 50.9892 62.0285C50.1587 62.9611 49.1926 63.6784 47.939 63.9335C46.4458 64.2364 45.3759 63.5908 44.9527 62.1321C44.9207 62.0205 44.8888 61.9169 44.8409 61.7734C44.0823 62.7937 43.2599 63.6864 42.2618 64.4117C41.5272 64.9458 40.7367 65.3762 39.8584 65.6153C38.3652 66.0218 37.2952 65.416 36.888 63.9175C36.6086 62.8893 36.6964 61.8531 36.8641 60.8329C37.1515 59.0793 37.4949 57.3417 37.8063 55.5881C37.942 54.8548 38.0139 54.1215 37.7424 53.3882C37.5987 52.9897 37.6625 52.5832 37.958 52.2723C38.2534 51.9694 38.5728 51.6825 38.9241 51.4513C39.7466 50.9253 40.6648 50.6144 41.623 50.4152C42.4374 50.2478 42.8846 50.5746 42.8367 51.4035C42.7808 52.2086 42.653 53.0056 42.5253 53.8027C42.2139 55.7077 41.8785 57.6127 41.5831 59.5257C41.5192 59.9242 41.5352 60.3546 41.615 60.7532C41.7188 61.3271 42.15 61.5502 42.653 61.2553C43.0842 61.0003 43.4994 60.6496 43.8188 60.259C44.5295 59.3822 44.8009 58.2982 45.0964 57.2461C45.4797 55.8592 45.7272 54.4483 45.7591 53.0136C45.7671 52.639 45.7032 52.2484 45.5994 51.8818C45.4477 51.3238 45.5435 50.8615 45.9508 50.455C46.7412 49.6579 47.7553 49.2674 48.8013 48.9406C49.0249 48.8688 49.2644 48.813 49.496 48.7732C50.3264 48.6377 50.7336 48.9725 50.6698 49.8094C50.6059 50.5905 50.4861 51.3637 50.3504 52.1289C50.0709 53.8027 49.7435 55.4686 49.488 57.1424C49.4082 57.6526 49.4401 58.2105 49.5439 58.7206C49.7355 59.6851 50.5819 59.9163 51.2527 59.1989C51.9952 58.4098 52.5302 57.525 52.642 56.3852C52.7777 54.9186 53.0572 53.4679 53.2169 52.0093C53.2728 51.4912 53.2808 50.9253 53.1291 50.4391C52.8975 49.65 53.1211 49.092 53.712 48.6138C54.5105 47.9681 55.4447 47.5935 56.4268 47.3225C56.6823 47.2508 56.9458 47.187 57.2013 47.1631C57.8082 47.1153 58.1116 47.3544 58.1515 47.9602C58.1755 48.3906 58.1196 48.829 58.0956 49.2674C58.0717 49.4587 58.0477 49.6261 58.0397 49.7137Z" fill="white"/>
<path d="M36.1694 57.6525C36.0975 59.98 35.4508 62.7378 33.6702 65.129C32.5044 66.6993 30.9873 67.7674 29.015 68.0782C26.6835 68.4449 25.0067 67.3369 24.4318 65.0493C23.9207 63.0168 24.1842 61.0162 24.839 59.0633C25.6454 56.6641 27.0029 54.6715 29.1987 53.3164C30.1089 52.7505 31.107 52.3918 32.169 52.2324C33.6622 52.0092 35.0276 52.7983 35.6903 54.2729C36.0416 55.0461 36.1854 55.8671 36.1694 57.6525ZM28.9112 61.2553C28.9272 61.4625 28.9352 61.8371 28.9991 62.1958C29.0949 62.7777 29.2705 63.3356 29.6937 63.774C30.4044 64.5153 31.6181 64.3878 32.3926 63.4711C33.0713 62.682 33.4146 61.7335 33.5264 60.7133C33.6462 59.6133 33.5743 58.617 32.2169 58.2423C31.6899 58.0989 31.4743 57.6047 31.4504 57.0467C31.4264 56.4171 31.5781 55.8432 31.8416 55.2772C31.9215 55.1099 31.8576 54.8867 31.8656 54.6874C31.674 54.7432 31.4184 54.7352 31.3067 54.8628C30.8835 55.3171 30.4523 55.7794 30.1329 56.3055C29.2625 57.788 28.9671 59.414 28.9112 61.2553Z" fill="white"/>
<path d="M20.3837 40.0373C18.7548 40.0293 17.621 39.3199 17.2218 37.9888C16.8704 36.8092 16.9662 35.6773 17.7488 34.673C18.0602 34.2665 18.4834 34.0274 19.0183 34.0274C19.6172 34.0274 20.0084 34.3223 20.1202 34.9042C20.1761 35.1991 20.1681 35.5099 20.2081 35.8128C20.248 36.1157 20.2879 36.4186 20.3757 36.7055C20.4636 36.9925 20.6313 37.2396 20.9906 37.2396C21.3499 37.2476 21.6134 37.0722 21.7411 36.7534C22.0526 35.9483 22.0046 35.1513 21.5256 34.4339C21.294 34.0832 20.9586 33.8042 20.6632 33.5093C20.4955 33.3419 20.2959 33.1984 20.1043 33.055C18.5392 31.8514 18.0362 30.4246 18.675 28.2725C19.2978 26.1842 20.8788 25.0524 22.8989 24.4864C23.4818 24.327 24.1046 24.2473 24.7035 24.2473C26.0449 24.2473 26.8195 24.9647 27.0191 26.2878C27.1309 27.0052 27.059 27.6986 26.7556 28.3443C26.5959 28.679 26.3404 28.9979 26.0609 29.245C25.7096 29.5478 25.2704 29.6993 24.7993 29.4761C24.3282 29.2529 24.1526 28.8225 24.1366 28.3363C24.1286 28.0653 24.1925 27.7863 24.2324 27.5073C24.2484 27.4037 24.3043 27.3081 24.3282 27.2045C24.3921 26.8697 24.5518 26.511 24.1526 26.2798C23.8811 26.1204 23.4898 26.2798 23.1864 26.6465C22.4917 27.4834 22.5396 28.7747 23.3301 29.5957C23.6176 29.8986 23.9769 30.1456 24.3123 30.4007C24.5757 30.6 24.8552 30.7833 25.1267 30.9746C26.3404 31.8115 26.7476 32.9912 26.5799 34.41C26.1967 37.5345 24.2324 39.5352 21.1103 39.9895C20.8628 40.0293 20.6153 40.0214 20.3837 40.0373Z" fill="white"/>
<path d="M71.5423 54.1214C71.4864 58.2024 68.2047 60.4342 64.907 60.2509C63.0625 60.1473 61.8887 58.7524 62.0005 56.8554C62.0404 56.1221 62.2161 55.4206 62.7351 54.8866C62.9826 54.6315 63.318 54.3924 63.6534 54.3127C64.5477 54.0895 65.0826 54.5917 65.1465 55.5721C65.1705 56.0025 65.2184 56.4409 65.3062 56.8713C65.3701 57.1901 65.5458 57.4771 65.937 57.4851C66.3522 57.501 66.6157 57.2619 66.7355 56.8952C67.015 56.0503 66.9271 55.2214 66.3602 54.5279C66.0009 54.0895 65.5537 53.7229 65.1146 53.3562C63.0785 51.6505 62.7591 49.0759 64.3959 46.9717C65.7613 45.2101 67.6378 44.4529 69.8416 44.5087C71.0074 44.5406 71.734 45.25 71.9416 46.4217C72.0853 47.2028 71.9975 47.9521 71.6781 48.6774C71.4705 49.1557 71.1271 49.5223 70.6321 49.7216C69.9534 49.9926 69.3066 49.6977 69.1549 48.9883C69.075 48.6057 69.1469 48.1832 69.1788 47.7767C69.1868 47.6253 69.2587 47.4738 69.3066 47.3144C69.3864 47.0195 69.4264 46.7007 69.107 46.5413C68.8035 46.3818 68.5161 46.5253 68.2765 46.7485C67.5499 47.434 67.4302 48.7571 68.0769 49.594C68.3245 49.9129 68.6439 50.1839 68.9632 50.4389C69.3545 50.7498 69.7937 51.0128 70.1929 51.3237C71.199 52.0968 71.5503 52.8461 71.5423 54.1214Z" fill="white"/>
<path d="M34.6923 26.5268C34.0376 27.3957 33.6623 28.3123 33.3748 29.2688C32.6802 31.6281 32.1611 34.0193 32.0813 36.4902C32.0573 37.2156 31.8817 37.3909 31.179 37.5902C30.2847 37.8373 29.3984 38.1163 28.5041 38.3634C27.8653 38.5387 27.5859 38.3793 27.6098 37.7177C27.6497 36.7772 27.7695 35.8446 27.9053 34.912C28.2646 32.4331 28.6798 29.9622 29.0151 27.4833C29.095 26.9094 29.0072 26.2957 28.8874 25.7218C28.7596 25.132 28.8794 24.6776 29.2946 24.2791C30.157 23.4501 31.2349 23.0516 32.3528 22.7408C32.4965 22.7009 32.6402 22.677 32.784 22.6451C33.6224 22.4937 34.0136 22.8364 33.9897 23.6893C33.9817 23.9523 33.9577 24.2153 33.9258 24.4863C33.9018 24.7334 33.8699 24.9885 33.8938 25.2515C33.9817 25.0602 34.0695 24.8769 34.1573 24.6856C34.5646 23.8248 35.0516 23.0197 35.8341 22.4538C36.0497 22.3024 36.2893 22.1669 36.5288 22.0792C37.5429 21.6886 38.3094 22.0951 38.4452 23.1632C38.6368 24.6537 38.3334 26.0486 37.3672 27.2362C37.1277 27.5312 36.7684 27.7703 36.417 27.9217C35.6745 28.2326 35.0277 27.8819 34.8041 27.1167C34.7722 26.9413 34.7482 26.7739 34.6923 26.5268Z" fill="white"/>
<path d="M73.4664 9.047C73.5622 7.61227 74.0173 6.32101 75.0713 5.30076C75.3348 5.0457 75.6941 4.83049 76.0534 4.72687C76.9557 4.47978 77.6424 4.90223 77.9298 5.80292C78.1454 6.48043 78.0895 7.16591 77.9378 7.84342C77.7222 8.79194 77.331 9.65277 76.6842 10.3781C76.1492 10.9759 75.5264 11.4462 74.6641 11.1433C73.8097 10.8404 73.5702 10.0912 73.4743 9.27815C73.4584 9.20641 73.4664 9.12671 73.4664 9.047Z" fill="white"/>
<path d="M42.5098 29.7791C42.6934 27.8422 42.9569 25.9612 43.6755 24.1677C43.8831 23.6496 44.1946 23.1555 44.5139 22.6932C44.6816 22.454 44.9531 22.2627 45.2166 22.1272C45.9592 21.7606 46.5261 22.1113 46.5421 22.9403C46.5501 23.562 46.5261 24.1837 46.4622 24.8054C46.3025 26.4394 46.1029 28.0734 45.5759 29.6357C45.3683 30.2574 45.017 30.8313 44.6976 31.4052C44.5938 31.5965 44.4022 31.7479 44.2185 31.8754C43.6596 32.274 43.0927 32.1464 42.8691 31.5008C42.6695 30.9588 42.6216 30.353 42.5098 29.7791Z" fill="#FF7F50"/>
<path d="M58.0239 24.3189C58.0958 22.4538 58.511 20.7879 59.6528 19.3611C59.8365 19.13 60.1 18.9387 60.3635 18.8032C60.8745 18.5561 61.2737 18.7952 61.3216 19.3532C61.3456 19.6162 61.3616 19.8952 61.2897 20.1423C60.8186 21.8081 59.8924 23.1552 58.4152 24.1117C58.3194 24.1754 58.2156 24.2153 58.0239 24.3189Z" fill="#FF7F50"/>
<path d="M15.3455 14.1006C14.5949 15.7585 14.4352 17.52 14.2117 19.2576C14.0839 20.2141 14.0041 21.1786 13.8843 22.143C13.8763 22.2307 13.7725 22.3822 13.7006 22.3822C13.0459 22.43 12.3752 22.5336 11.7284 22.4619C10.874 22.3662 10.5387 21.7764 10.6664 20.9315C11.0577 18.341 12.5349 16.4201 14.4752 14.7861C14.7626 14.5549 15.0581 14.3317 15.3455 14.1006Z" fill="#FF7F50"/>
<path d="M28.9116 61.2554C28.9675 59.4062 29.255 57.7881 30.1333 56.3295C30.4527 55.8034 30.8839 55.3411 31.3071 54.8868C31.4188 54.7593 31.6744 54.7672 31.866 54.7114C31.858 54.9107 31.9219 55.1339 31.842 55.3013C31.5785 55.8672 31.4188 56.4411 31.4508 57.0708C31.4747 57.6287 31.6903 58.1229 32.2173 58.2664C33.5747 58.633 33.6466 59.6373 33.5268 60.7373C33.415 61.7575 33.0717 62.6981 32.393 63.4952C31.6185 64.4038 30.4048 64.5393 29.6941 63.798C29.2709 63.3597 29.0953 62.8017 28.9995 62.2198C28.9436 61.8372 28.9356 61.4626 28.9116 61.2554Z" fill="#FF7F50"/>
</svg>
