<svg width="24" height="24" viewBox="0 0 24 24" fill="none" xmlns="http://www.w3.org/2000/svg">
<circle cx="18.5" cy="19" r="2.5" stroke="#FF7F50" stroke-width="1.5" stroke-linecap="round" stroke-linejoin="round"/>
<path d="M6.50048 5.375C6.56945 5.37527 6.62518 5.43135 6.625 5.50032C6.62482 5.56929 6.56881 5.62509 6.49984 5.625C6.43087 5.62491 6.375 5.56898 6.375 5.5C6.37482 5.46671 6.388 5.43474 6.41158 5.41124C6.43517 5.38775 6.46719 5.37469 6.50048 5.375" stroke="#FF7F50" stroke-width="1.5" stroke-linecap="round" stroke-linejoin="round"/>
<path fill-rule="evenodd" clip-rule="evenodd" d="M10 5.5C10 7.16138 8.1435 8.93827 7.13391 9.7815C6.76098 10.073 6.23742 10.0728 5.86465 9.78116C4.856 8.93783 3 7.16117 3 5.5V5.5C3 3.567 4.567 2 6.5 2V2C8.433 2 10 3.567 10 5.5V5.5Z" stroke="#FF7F50" stroke-width="1.5" stroke-linecap="round" stroke-linejoin="round"/>
<path d="M12 19H9C7.34315 19 6 17.6569 6 16V16C6 14.3431 7.34315 13 9 13H15C16.6569 13 18 11.6569 18 10V10C18 8.34315 16.6569 7 15 7H13" stroke="#FF7F50" stroke-width="1.5" stroke-linecap="round" stroke-linejoin="round"/>
</svg>
