<svg width="24" height="24" viewBox="0 0 24 24" fill="none" xmlns="http://www.w3.org/2000/svg">
<path fill-rule="evenodd" clip-rule="evenodd" d="M19.8 20.7H4.2C3.8 20.7 3.4 20.4 3.3 20L2.5 17.7H21.5L20.7 20C20.6 20.4 20.2 20.7 19.8 20.7Z" stroke="#FF7F50" stroke-width="1.5" stroke-linecap="round" stroke-linejoin="round"/>
<path d="M3.09995 17.7V16.7C2.79995 11.6 6.89995 7.30005 12.0999 7.30005V7.30005C17.1999 7.30005 21.2999 11.6 21.0999 16.7V17.7" stroke="#FF7F50" stroke-width="1.5" stroke-linecap="round" stroke-linejoin="round"/>
<path fill-rule="evenodd" clip-rule="evenodd" d="M12 7.3V7.3C10.9 7.3 10 6.4 10 5.3V5C10 3.9 10.9 3 12 3V3C13.1 3 14 3.9 14 5V5.3C14 6.4 13.1 7.3 12 7.3Z" stroke="#FF7F50" stroke-width="1.5" stroke-linecap="round" stroke-linejoin="round"/>
</svg>
